<svg xmlns="http://www.w3.org/2000/svg" id="Layer_1" data-name="Layer 1" viewBox="0 0 136.17 136.11">
  <defs>
    <style>

    </style>
  </defs>
  <path d="M94.01 46.94c-3.61 3.41-3.77 9.1-.35 12.71s9.1 3.77 12.71.35c3.61-3.41 3.77-9.1.35-12.71s-9.1-3.77-12.71-.35Z" class="cls-1"/>
  <path d="M105.11 70.78c-3.48.99-7.23.93-10.79-.3-1.59-.55-3.09-1.33-4.47-2.3-.45-.31-.88-.65-1.3-1-.06-.05-.13-.11-.19-.17-.43-.38-.85-.77-1.24-1.18-3.3-3.49-5.05-8.06-4.91-12.86.13-4.8 2.13-9.26 5.62-12.57.54-.51 1.11-.98 1.69-1.41.29-.22.41-.6.28-.94-1.92-5.2-5.05-8.92-9.29-10.37-8.78-3.02-19.8 4.49-28.01 17.8-12.52-.09-22.24 3.97-24.83 11.5-2.37 6.89 1.75 15.16 10.07 22.37 1.09.95 2.25 1.87 3.48 2.77-.43 13.24 3.64 23.64 11.47 26.34 7.55 2.6 16.76-2.6 24.41-12.57.08-.1.15-.22.23-.32l.05-.05c.48-.64.95-1.29 1.42-1.97.12-.17.23-.34.34-.51.23-.34.47-.68.7-1.04.03-.04.04-.09.06-.13.25-.38.5-.75.75-1.15 1.87-3.02 3.6-6.35 5.12-9.92.75-1.75 1.45-3.57 2.09-5.43.31-.9.6-1.79.87-2.68 1.69 1.55 3.06 3.12 4.05 4.66.89 1.39 1.46 2.76 1.69 4.07 0 .02 0 .04.01.05.03.16.05.31.07.47.04.38.04.76 0 1.14v.06c-.04.51-.14 1-.31 1.48-.08.22-.16.43-.26.64v.01c-1.56 3.52-6.04 6.87-12.31 9.39-.82.33-.6 1.54.28 1.58 13.33.48 23.81-3.6 26.52-11.46 1.45-4.22.47-8.96-2.43-13.66-.19-.31-.57-.46-.92-.36ZM71.89 38.97c3.47 1.2 5.51 5.51 6 11.56-.82-.31-1.65-.61-2.5-.9-5.69-1.96-11.32-3.2-16.61-3.78 4.49-5.44 9.28-8.19 13.11-6.87ZM51.39 98.5c-3.86-1.33-5.94-6.51-6.1-13.63 4.54 2.82 9.75 5.31 15.46 7.28.86.3 1.72.58 2.57.84-4.14 4.53-8.43 6.72-11.93 5.51Zm23-25.37c-1.45 4.21-3.2 8.08-5.13 11.48-.89 1.58-1.83 3.06-2.78 4.42-2.09-.51-4.23-1.14-6.39-1.88-2.37-.82-4.64-1.73-6.77-2.72-2.89-1.33-5.54-2.8-7.88-4.35.4-4.82 1.54-10.21 3.44-15.73l.39-1.11c.24-.68-.44-1.31-1.1-1.03-1.31.57-2.53 1.17-3.65 1.81-.18.1-.32.28-.38.48-1.27 4.36-2.12 8.65-2.57 12.75-.02-.02-.04-.03-.06-.05-2-1.66-3.64-3.36-4.83-5.04-2.02-2.84-2.79-5.61-1.97-8.01 1.2-3.47 5.52-5.51 11.57-6 .7-.06 1.44-.09 2.18-.1.14 0 .28 0 .43-.01.8 0 1.62 0 2.47.04 2.27.11 4.68.39 7.19.84 3.31.6 6.79 1.5 10.32 2.72 2.77.95 5.39 2.04 7.83 3.22-.58 2.69-1.35 5.47-2.31 8.28Z" class="cls-1"/>
</svg>
